<svg width="1224" height="274" viewBox="0 0 1224 274" fill="none" xmlns="http://www.w3.org/2000/svg">
<path d="M0 61.9886V3.64639H137.376V61.9886H89.8349V270.354H47.5415V61.9886H0Z" fill="#5D3136"/>
<path d="M153.526 270.354V3.64639H196.437V107.829H253.239V3.64639H296.15V270.354H253.239V166.171H196.437V270.354H153.526Z" fill="#5D3136"/>
<path d="M316.525 270.354V3.64639H430.439V61.9886H359.436V107.829H424.574V166.171H359.436V212.011H430.131V270.354H316.525Z" fill="#5D3136"/>
<path d="M642.582 103.662H599.053C598.745 97.5843 597.922 92.0713 596.584 87.1226C595.298 82.174 593.497 77.9198 591.181 74.3603C588.917 70.7139 586.165 67.9357 582.923 66.0257C579.682 64.0288 576.003 63.0304 571.887 63.0304C564.684 63.0304 558.587 65.9823 553.596 71.8859C548.656 77.7896 544.9 86.2544 542.328 97.2804C539.807 108.306 538.546 121.546 538.546 137C538.546 153.322 539.832 166.996 542.405 178.022C545.029 188.961 548.811 197.209 553.75 202.765C558.689 208.235 564.632 210.97 571.578 210.97C575.54 210.97 579.09 210.145 582.229 208.495C585.367 206.759 588.094 204.285 590.41 201.072C592.725 197.86 594.603 193.997 596.044 189.482C597.536 184.881 598.539 179.715 599.053 173.985L642.582 174.506C642.067 185.792 640.189 197.296 636.948 209.016C633.706 220.65 629.101 231.415 623.133 241.313C617.216 251.123 609.884 259.024 601.137 265.014C592.39 271.005 582.229 274 570.652 274C556.143 274 543.125 268.747 531.6 258.242C520.126 247.737 511.045 232.284 504.356 211.881C497.719 191.479 494.4 166.518 494.4 137C494.4 107.308 497.796 82.3042 504.588 61.9886C511.38 41.5862 520.538 26.1759 532.063 15.7576C543.588 5.25253 556.451 0 570.652 0C580.634 0 589.818 2.30069 598.204 6.90208C606.591 11.5035 613.949 18.2319 620.277 27.0874C626.606 35.8561 631.7 46.6651 635.559 59.5143C639.417 72.3634 641.758 87.0792 642.582 103.662Z" fill="#5D3136"/>
<path d="M662.05 270.354V3.64639H704.961V212.011H768.864V270.354H662.05Z" fill="#5D3136"/>
<path d="M933.175 137C933.175 166.692 929.754 191.739 922.91 212.142C916.067 232.457 906.832 247.868 895.204 258.373C883.576 268.791 870.61 274 856.306 274C841.9 274 828.882 268.747 817.254 258.242C805.678 247.651 796.468 232.197 789.625 211.881C782.833 191.479 779.437 166.518 779.437 137C779.437 107.308 782.833 82.3042 789.625 61.9886C796.468 41.5862 805.678 26.1759 817.254 15.7576C828.882 5.25253 841.9 0 856.306 0C870.61 0 883.576 5.25253 895.204 15.7576C906.832 26.1759 916.067 41.5862 922.91 61.9886C929.754 82.3042 933.175 107.308 933.175 137ZM889.029 137C889.029 121.025 887.769 107.568 885.248 96.6293C882.778 85.6033 879.099 77.2687 874.211 71.6255C869.375 65.8954 863.406 63.0304 856.306 63.0304C849.206 63.0304 843.212 65.8954 838.324 71.6255C833.487 77.2687 829.808 85.6033 827.287 96.6293C824.818 107.568 823.583 121.025 823.583 137C823.583 152.975 824.818 166.475 827.287 177.501C829.808 188.44 833.487 196.775 838.324 202.505C843.212 208.148 849.206 210.97 856.306 210.97C863.406 210.97 869.375 208.148 874.211 202.505C879.099 196.775 882.778 188.44 885.248 177.501C887.769 166.475 889.029 152.975 889.029 137Z" fill="#5D3136"/>
<path d="M1089.79 3.64639V270.354H1053.98L996.866 130.228H995.94V270.354H953.029V3.64639H989.457L1045.64 143.251H1046.88V3.64639H1089.79Z" fill="#5D3136"/>
<path d="M1110.09 270.354V3.64639H1224V61.9886H1153V107.829H1218.13V166.171H1153V212.011H1223.69V270.354H1110.09Z" fill="#5D3136"/>
</svg>
